<svg xmlns="http://www.w3.org/2000/svg" xmlns:xlink="http://www.w3.org/1999/xlink" width="500" zoomAndPan="magnify" viewBox="0 0 375 374.999991" height="500" preserveAspectRatio="xMidYMid meet" version="1.0"><defs><filter x="0%" y="0%" width="100%" height="100%" id="f3134bf7c8"><feColorMatrix values="0 0 0 0 1 0 0 0 0 1 0 0 0 0 1 0 0 0 1 0" color-interpolation-filters="sRGB"/></filter><g/><mask id="6f259eb6b6"><g filter="url(#f3134bf7c8)"><rect x="-37.5" width="450" fill="#000000" y="-37.499999" height="449.999989" fill-opacity="0.07"/></g></mask><clipPath id="ea9d87c352"><path d="M 0.53125 32 L 66 32 L 66 99 L 0.53125 99 Z M 0.53125 32 " clip-rule="nonzero"/></clipPath><clipPath id="ec1e7fb903"><path d="M 78 76 L 123 76 L 123 121.722656 L 78 121.722656 Z M 78 76 " clip-rule="nonzero"/></clipPath><clipPath id="85b39380ad"><path d="M 187 0.222656 L 215.78125 0.222656 L 215.78125 35 L 187 35 Z M 187 0.222656 " clip-rule="nonzero"/></clipPath><clipPath id="b9ec7c801d"><rect x="0" width="216" y="0" height="123"/></clipPath><clipPath id="bfd2ebce72"><path d="M 188 186.789062 L 232 186.789062 L 232 254 L 188 254 Z M 188 186.789062 " clip-rule="nonzero"/></clipPath><clipPath id="a276be3fe7"><path d="M 136.40625 188 L 239.15625 188 L 239.15625 258.039062 L 136.40625 258.039062 Z M 136.40625 188 " clip-rule="nonzero"/></clipPath><clipPath id="bc94c2f94f"><path d="M 144 186.789062 L 187 186.789062 L 187 254 L 144 254 Z M 144 186.789062 " clip-rule="nonzero"/></clipPath><clipPath id="146e22b558"><path d="M 119.910156 118.933594 L 255.660156 118.933594 L 255.660156 275.683594 L 119.910156 275.683594 Z M 119.910156 118.933594 " clip-rule="nonzero"/></clipPath></defs><g fill="#483d43" fill-opacity="1"><g transform="translate(121.276724, 116.75642)"><g><path d="M 7.96875 -4.28125 L 0.765625 -0.421875 C 0.222656 -2.347656 -0.460938 -4.328125 -1.296875 -6.359375 C -2.140625 -8.398438 -3.085938 -10.40625 -4.140625 -12.375 C -5.203125 -14.34375 -6.34375 -16.238281 -7.5625 -18.0625 C -8.789062 -19.882812 -10.070312 -21.5625 -11.40625 -23.09375 L -2.328125 -27.96875 C -0.234375 -29.09375 1.664062 -29.796875 3.375 -30.078125 C 5.09375 -30.367188 6.578125 -30.34375 7.828125 -30 C 9.085938 -29.664062 10.082031 -29.085938 10.8125 -28.265625 C 11.550781 -27.453125 11.972656 -26.484375 12.078125 -25.359375 C 12.191406 -24.242188 11.960938 -23.054688 11.390625 -21.796875 C 10.816406 -20.535156 9.859375 -19.289062 8.515625 -18.0625 C 9.503906 -17.394531 10.5625 -16.707031 11.6875 -16 C 12.8125 -15.289062 13.945312 -14.625 15.09375 -14 C 16.238281 -13.382812 17.320312 -12.835938 18.34375 -12.359375 C 19.375 -11.890625 20.28125 -11.539062 21.0625 -11.3125 L 12.09375 -6.5 C 11.738281 -7.3125 11.1875 -8.210938 10.4375 -9.203125 C 9.695312 -10.191406 8.78125 -11.191406 7.6875 -12.203125 C 6.601562 -13.210938 5.367188 -14.140625 3.984375 -14.984375 L 1.5 -13.65625 C 2.15625 -12.46875 2.863281 -11.296875 3.625 -10.140625 C 4.394531 -8.984375 5.15625 -7.90625 5.90625 -6.90625 C 6.664062 -5.90625 7.351562 -5.03125 7.96875 -4.28125 Z M 0.984375 -14.546875 L 3.4375 -15.859375 C 4.8125 -16.597656 5.78125 -17.5 6.34375 -18.5625 C 6.90625 -19.625 7.082031 -20.75 6.875 -21.9375 C 6.675781 -23.125 6.109375 -24.28125 5.171875 -25.40625 C 4.691406 -25.976562 4.117188 -26.503906 3.453125 -26.984375 C 2.796875 -27.472656 2.085938 -27.796875 1.328125 -27.953125 C 0.578125 -28.117188 -0.175781 -28 -0.9375 -27.59375 C -1.738281 -27.15625 -2.222656 -26.488281 -2.390625 -25.59375 C -2.566406 -24.695312 -2.515625 -23.644531 -2.234375 -22.4375 C -1.960938 -21.226562 -1.535156 -19.941406 -0.953125 -18.578125 C -0.378906 -17.222656 0.265625 -15.878906 0.984375 -14.546875 Z M 0.984375 -14.546875 "/></g></g></g><g fill="#483d43" fill-opacity="1"><g transform="translate(140.800846, 106.414655)"><g><path d="M -2.203125 -8.109375 C -2.671875 -9.460938 -2.882812 -10.796875 -2.84375 -12.109375 C -2.800781 -13.421875 -2.523438 -14.648438 -2.015625 -15.796875 C -1.515625 -16.953125 -0.800781 -17.960938 0.125 -18.828125 C 1.050781 -19.703125 2.175781 -20.367188 3.5 -20.828125 C 4.144531 -21.054688 4.847656 -21.21875 5.609375 -21.3125 C 6.367188 -21.40625 7.101562 -21.390625 7.8125 -21.265625 C 8.519531 -21.148438 9.15625 -20.890625 9.71875 -20.484375 C 10.28125 -20.078125 10.71875 -19.484375 11.03125 -18.703125 C 11.375 -17.828125 11.453125 -16.941406 11.265625 -16.046875 C 11.078125 -15.160156 10.695312 -14.300781 10.125 -13.46875 C 9.5625 -12.644531 8.894531 -11.882812 8.125 -11.1875 C 7.363281 -10.488281 6.570312 -9.882812 5.75 -9.375 C 4.9375 -8.875 4.1875 -8.503906 3.5 -8.265625 C 3.882812 -7.296875 4.414062 -6.40625 5.09375 -5.59375 C 5.78125 -4.789062 6.539062 -4.207031 7.375 -3.84375 C 8.21875 -3.488281 9.085938 -3.5 9.984375 -3.875 C 10.460938 -4.070312 10.707031 -4.382812 10.71875 -4.8125 C 10.738281 -5.238281 10.59375 -5.695312 10.28125 -6.1875 C 9.976562 -6.6875 9.585938 -7.132812 9.109375 -7.53125 C 8.628906 -7.9375 8.148438 -8.210938 7.671875 -8.359375 C 8.179688 -9.179688 8.707031 -9.820312 9.25 -10.28125 C 9.789062 -10.738281 10.316406 -11.054688 10.828125 -11.234375 C 11.503906 -11.472656 12.101562 -11.476562 12.625 -11.25 C 13.144531 -11.03125 13.535156 -10.628906 13.796875 -10.046875 C 14.066406 -9.472656 14.117188 -8.773438 13.953125 -7.953125 C 13.691406 -6.691406 13.128906 -5.582031 12.265625 -4.625 C 11.398438 -3.675781 10.378906 -3 9.203125 -2.59375 C 7.878906 -2.125 6.613281 -1.9375 5.40625 -2.03125 C 4.195312 -2.125 3.09375 -2.441406 2.09375 -2.984375 C 1.09375 -3.523438 0.222656 -4.234375 -0.515625 -5.109375 C -1.253906 -5.992188 -1.816406 -6.992188 -2.203125 -8.109375 Z M 2.09375 -13.765625 C 2.144531 -13.210938 2.257812 -12.515625 2.4375 -11.671875 C 2.625 -10.828125 2.875 -9.957031 3.1875 -9.0625 C 4.0625 -9.4375 4.757812 -10.03125 5.28125 -10.84375 C 5.8125 -11.65625 6.171875 -12.5625 6.359375 -13.5625 C 6.554688 -14.570312 6.597656 -15.535156 6.484375 -16.453125 C 6.304688 -17.960938 5.992188 -19.003906 5.546875 -19.578125 C 5.097656 -20.148438 4.632812 -20.351562 4.15625 -20.1875 C 3.757812 -20.050781 3.390625 -19.691406 3.046875 -19.109375 C 2.703125 -18.523438 2.4375 -17.773438 2.25 -16.859375 C 2.070312 -15.953125 2.019531 -14.921875 2.09375 -13.765625 Z M 2.09375 -13.765625 "/></g></g></g><g fill="#483d43" fill-opacity="1"><g transform="translate(155.558344, 101.135632)"><g><path d="M 9.21875 -4.5 C 8.894531 -3.351562 8.328125 -2.421875 7.515625 -1.703125 C 6.703125 -0.992188 5.816406 -0.546875 4.859375 -0.359375 C 3.929688 -0.171875 3.007812 -0.234375 2.09375 -0.546875 C 1.1875 -0.859375 0.425781 -1.445312 -0.1875 -2.3125 C -0.800781 -3.175781 -1.144531 -4.335938 -1.21875 -5.796875 C -1.28125 -7.097656 -1.015625 -8.289062 -0.421875 -9.375 C 0.171875 -10.46875 0.960938 -11.378906 1.953125 -12.109375 C 2.941406 -12.835938 4 -13.3125 5.125 -13.53125 C 5.832031 -13.675781 6.535156 -13.707031 7.234375 -13.625 C 7.941406 -13.550781 8.617188 -13.347656 9.265625 -13.015625 C 9.410156 -13.597656 9.46875 -14.28125 9.4375 -15.0625 C 9.414062 -15.851562 9.1875 -16.65625 8.75 -17.46875 C 8.394531 -18.144531 7.953125 -18.625 7.421875 -18.90625 C 6.890625 -19.195312 6.414062 -19.300781 6 -19.21875 C 5.695312 -19.15625 5.460938 -19.003906 5.296875 -18.765625 C 5.128906 -18.523438 5.066406 -18.195312 5.109375 -17.78125 C 5.234375 -16.8125 5.171875 -16.03125 4.921875 -15.4375 C 4.671875 -14.851562 4.328125 -14.398438 3.890625 -14.078125 C 3.453125 -13.765625 3.003906 -13.535156 2.546875 -13.390625 C 1.703125 -13.117188 0.988281 -13.117188 0.40625 -13.390625 C -0.175781 -13.660156 -0.53125 -14.082031 -0.65625 -14.65625 C -0.78125 -15.238281 -0.585938 -15.851562 -0.078125 -16.5 C 0.628906 -17.4375 1.503906 -18.21875 2.546875 -18.84375 C 3.597656 -19.46875 4.679688 -19.894531 5.796875 -20.125 C 6.765625 -20.3125 7.710938 -20.335938 8.640625 -20.203125 C 9.578125 -20.066406 10.425781 -19.742188 11.1875 -19.234375 C 11.957031 -18.722656 12.582031 -18.003906 13.0625 -17.078125 C 13.539062 -16.148438 13.816406 -15 13.890625 -13.625 C 13.929688 -12.675781 14.007812 -11.675781 14.125 -10.625 C 14.25 -9.582031 14.550781 -8.472656 15.03125 -7.296875 C 15.519531 -6.128906 16.320312 -4.859375 17.4375 -3.484375 L 9.96875 -2 C 9.757812 -2.40625 9.597656 -2.816406 9.484375 -3.234375 C 9.367188 -3.660156 9.28125 -4.082031 9.21875 -4.5 Z M 4.421875 -7.75 C 4.359375 -6.71875 4.441406 -5.84375 4.671875 -5.125 C 4.898438 -4.414062 5.210938 -3.894531 5.609375 -3.5625 C 6.015625 -3.238281 6.425781 -3.117188 6.84375 -3.203125 C 7.28125 -3.296875 7.6875 -3.628906 8.0625 -4.203125 C 8.4375 -4.773438 8.707031 -5.617188 8.875 -6.734375 C 9.050781 -7.847656 9.050781 -9.253906 8.875 -10.953125 C 8.75 -11.609375 8.519531 -12.0625 8.1875 -12.3125 C 7.863281 -12.5625 7.507812 -12.648438 7.125 -12.578125 C 6.519531 -12.453125 5.925781 -11.960938 5.34375 -11.109375 C 4.769531 -10.253906 4.460938 -9.132812 4.421875 -7.75 Z M 4.421875 -7.75 "/></g></g></g><g fill="#483d43" fill-opacity="1"><g transform="translate(171.993344, 97.687952)"><g><path d="M 5.5 0.296875 C 4.5 0.347656 3.660156 0.160156 2.984375 -0.265625 C 2.316406 -0.703125 1.773438 -1.289062 1.359375 -2.03125 C 0.941406 -2.769531 0.640625 -3.582031 0.453125 -4.46875 C 0.265625 -5.363281 0.171875 -6.257812 0.171875 -7.15625 C 0.179688 -8.0625 0.242188 -8.878906 0.359375 -9.609375 C 0.578125 -10.710938 0.910156 -11.8125 1.359375 -12.90625 C 1.804688 -14 2.375 -15 3.0625 -15.90625 C 3.757812 -16.8125 4.578125 -17.539062 5.515625 -18.09375 C 6.460938 -18.644531 7.523438 -18.953125 8.703125 -19.015625 C 9.285156 -19.046875 9.828125 -18.96875 10.328125 -18.78125 C 10.835938 -18.59375 11.226562 -18.234375 11.5 -17.703125 C 11.34375 -19.273438 11.125 -20.789062 10.84375 -22.25 C 10.570312 -23.707031 10.25 -25.046875 9.875 -26.265625 L 17.46875 -26.640625 C 17.207031 -25.222656 17.015625 -23.648438 16.890625 -21.921875 C 16.765625 -20.191406 16.710938 -18.394531 16.734375 -16.53125 C 16.765625 -14.664062 16.859375 -12.800781 17.015625 -10.9375 C 17.179688 -9.082031 17.410156 -7.304688 17.703125 -5.609375 C 18.003906 -3.910156 18.359375 -2.351562 18.765625 -0.9375 L 11.171875 -0.5625 C 11.492188 -2.257812 11.707031 -4.132812 11.8125 -6.1875 C 11.207031 -4.101562 10.316406 -2.515625 9.140625 -1.421875 C 7.972656 -0.335938 6.757812 0.234375 5.5 0.296875 Z M 9.21875 -17.609375 C 8.6875 -17.390625 8.195312 -16.898438 7.75 -16.140625 C 7.3125 -15.378906 6.925781 -14.472656 6.59375 -13.421875 C 6.269531 -12.378906 6.03125 -11.285156 5.875 -10.140625 C 5.71875 -9.003906 5.65625 -7.914062 5.6875 -6.875 C 5.71875 -5.84375 5.863281 -4.960938 6.125 -4.234375 C 6.382812 -3.503906 6.78125 -3.035156 7.3125 -2.828125 C 7.46875 -2.765625 7.65625 -2.738281 7.875 -2.75 C 8.40625 -2.769531 8.957031 -3.085938 9.53125 -3.703125 C 10.101562 -4.328125 10.601562 -5.207031 11.03125 -6.34375 C 11.457031 -7.476562 11.722656 -8.851562 11.828125 -10.46875 C 11.878906 -11.332031 11.882812 -12.265625 11.84375 -13.265625 C 11.8125 -14.273438 11.6875 -15.332031 11.46875 -16.4375 C 11.320312 -16.863281 11.097656 -17.191406 10.796875 -17.421875 C 10.492188 -17.660156 10.160156 -17.769531 9.796875 -17.75 C 9.585938 -17.738281 9.394531 -17.691406 9.21875 -17.609375 Z M 9.21875 -17.609375 "/></g></g></g><g fill="#483d43" fill-opacity="1"><g transform="translate(189.798419, 96.386477)"><g><path d="M 6.75 0.84375 L 0.875 0.109375 C 1.539062 -1.796875 2.125 -3.816406 2.625 -5.953125 C 3.125 -8.085938 3.507812 -10.265625 3.78125 -12.484375 C 4.0625 -14.703125 4.222656 -16.910156 4.265625 -19.109375 C 4.316406 -21.316406 4.25 -23.421875 4.0625 -25.421875 L 12.171875 -24.40625 C 12.285156 -23.539062 12.585938 -22.550781 13.078125 -21.4375 C 13.566406 -20.332031 14.171875 -19.164062 14.890625 -17.9375 C 15.609375 -16.707031 16.378906 -15.5 17.203125 -14.3125 C 18.023438 -13.125 18.832031 -12.003906 19.625 -10.953125 C 20.414062 -9.910156 21.128906 -9.007812 21.765625 -8.25 C 22.398438 -7.5 22.890625 -6.953125 23.234375 -6.609375 C 23.503906 -8.015625 23.71875 -9.453125 23.875 -10.921875 C 24.019531 -12.296875 24.003906 -13.71875 23.828125 -15.1875 C 23.660156 -16.65625 23.382812 -18.082031 23 -19.46875 C 22.613281 -20.851562 22.160156 -22.101562 21.640625 -23.21875 L 27.515625 -22.484375 C 26.835938 -20.585938 26.253906 -18.566406 25.765625 -16.421875 C 25.273438 -14.285156 24.890625 -12.109375 24.609375 -9.890625 C 24.335938 -7.671875 24.171875 -5.460938 24.109375 -3.265625 C 24.054688 -1.066406 24.128906 1.035156 24.328125 3.046875 L 18.921875 2.359375 C 18.816406 1.742188 18.476562 0.84375 17.90625 -0.34375 C 17.34375 -1.53125 16.613281 -2.90625 15.71875 -4.46875 C 14.820312 -6.039062 13.820312 -7.710938 12.71875 -9.484375 C 11.625 -11.253906 10.5 -13.039062 9.34375 -14.84375 C 8.1875 -16.644531 7.082031 -18.363281 6.03125 -20 C 5.375 -17.394531 4.882812 -14.695312 4.5625 -11.90625 C 4.40625 -10.476562 4.410156 -9.003906 4.578125 -7.484375 C 4.742188 -5.972656 5.019531 -4.503906 5.40625 -3.078125 C 5.800781 -1.648438 6.25 -0.34375 6.75 0.84375 Z M 6.75 0.84375 "/></g></g></g><g fill="#483d43" fill-opacity="1"><g transform="translate(213.263116, 99.524997)"><g><path d="M 2.9375 -7.875 C 3.34375 -9.238281 3.945312 -10.4375 4.75 -11.46875 C 5.5625 -12.507812 6.507812 -13.351562 7.59375 -14 C 8.675781 -14.644531 9.847656 -15.050781 11.109375 -15.21875 C 12.378906 -15.382812 13.679688 -15.269531 15.015625 -14.875 C 15.671875 -14.675781 16.332031 -14.390625 17 -14.015625 C 17.675781 -13.648438 18.257812 -13.210938 18.75 -12.703125 C 19.25 -12.191406 19.613281 -11.601562 19.84375 -10.9375 C 20.070312 -10.269531 20.082031 -9.539062 19.875 -8.75 C 19.65625 -7.820312 19.207031 -7.050781 18.53125 -6.4375 C 17.851562 -5.832031 17.039062 -5.359375 16.09375 -5.015625 C 15.144531 -4.671875 14.15625 -4.441406 13.125 -4.328125 C 12.101562 -4.210938 11.113281 -4.1875 10.15625 -4.25 C 9.195312 -4.320312 8.367188 -4.460938 7.671875 -4.671875 C 7.421875 -3.648438 7.335938 -2.613281 7.421875 -1.5625 C 7.503906 -0.507812 7.773438 0.40625 8.234375 1.1875 C 8.703125 1.96875 9.414062 2.46875 10.375 2.6875 C 10.875 2.800781 11.253906 2.6875 11.515625 2.34375 C 11.773438 2.007812 11.925781 1.550781 11.96875 0.96875 C 12.007812 0.394531 11.953125 -0.191406 11.796875 -0.796875 C 11.648438 -1.398438 11.421875 -1.898438 11.109375 -2.296875 C 12.003906 -2.660156 12.800781 -2.875 13.5 -2.9375 C 14.207031 -3 14.820312 -2.953125 15.34375 -2.796875 C 16.03125 -2.585938 16.519531 -2.238281 16.8125 -1.75 C 17.113281 -1.257812 17.195312 -0.703125 17.0625 -0.078125 C 16.9375 0.535156 16.566406 1.128906 15.953125 1.703125 C 15.023438 2.566406 13.929688 3.132812 12.671875 3.40625 C 11.410156 3.675781 10.179688 3.628906 8.984375 3.265625 C 7.628906 2.867188 6.488281 2.28125 5.5625 1.5 C 4.644531 0.71875 3.9375 -0.179688 3.4375 -1.203125 C 2.9375 -2.222656 2.644531 -3.304688 2.5625 -4.453125 C 2.476562 -5.597656 2.601562 -6.738281 2.9375 -7.875 Z M 9.75 -9.9375 C 9.457031 -9.46875 9.140625 -8.835938 8.796875 -8.046875 C 8.453125 -7.253906 8.144531 -6.40625 7.875 -5.5 C 8.800781 -5.289062 9.710938 -5.359375 10.609375 -5.703125 C 11.503906 -6.054688 12.328125 -6.585938 13.078125 -7.296875 C 13.835938 -8.003906 14.4375 -8.757812 14.875 -9.5625 C 15.625 -10.882812 15.976562 -11.910156 15.9375 -12.640625 C 15.90625 -13.367188 15.644531 -13.804688 15.15625 -13.953125 C 14.757812 -14.078125 14.253906 -14 13.640625 -13.71875 C 13.023438 -13.445312 12.375 -13 11.6875 -12.375 C 11.007812 -11.75 10.363281 -10.9375 9.75 -9.9375 Z M 9.75 -9.9375 "/></g></g></g><g fill="#483d43" fill-opacity="1"><g transform="translate(228.341644, 103.89829)"><g><path d="M 2.171875 -2.21875 C 2.109375 -3.050781 2.226562 -3.742188 2.53125 -4.296875 C 2.832031 -4.859375 3.253906 -5.226562 3.796875 -5.40625 C 4.335938 -5.582031 4.9375 -5.519531 5.59375 -5.21875 C 6.09375 -5 6.582031 -4.632812 7.0625 -4.125 C 7.550781 -3.625 8.015625 -2.941406 8.453125 -2.078125 C 7.804688 -1.953125 7.296875 -1.679688 6.921875 -1.265625 C 6.554688 -0.847656 6.351562 -0.367188 6.3125 0.171875 C 6.28125 0.710938 6.40625 1.273438 6.6875 1.859375 C 7.03125 2.535156 7.503906 3.007812 8.109375 3.28125 C 8.648438 3.519531 9.21875 3.582031 9.8125 3.46875 C 10.40625 3.351562 10.910156 3.082031 11.328125 2.65625 C 11.753906 2.238281 12 1.703125 12.0625 1.046875 C 12.125 0.390625 11.90625 -0.34375 11.40625 -1.15625 C 11 -1.851562 10.46875 -2.566406 9.8125 -3.296875 C 9.164062 -4.035156 8.546875 -4.785156 7.953125 -5.546875 C 7.179688 -6.566406 6.707031 -7.59375 6.53125 -8.625 C 6.351562 -9.664062 6.441406 -10.601562 6.796875 -11.4375 C 7.160156 -12.28125 7.785156 -12.9375 8.671875 -13.40625 C 9.566406 -13.882812 10.695312 -14.09375 12.0625 -14.03125 C 12.84375 -13.96875 13.632812 -13.835938 14.4375 -13.640625 C 15.25 -13.441406 16.019531 -13.175781 16.75 -12.84375 C 17.6875 -12.425781 18.519531 -11.925781 19.25 -11.34375 C 19.988281 -10.769531 20.535156 -10.171875 20.890625 -9.546875 C 21.253906 -8.921875 21.347656 -8.285156 21.171875 -7.640625 C 20.984375 -6.921875 20.484375 -6.375 19.671875 -6 C 18.867188 -5.625 17.863281 -5.617188 16.65625 -5.984375 C 15.820312 -6.253906 15.234375 -6.660156 14.890625 -7.203125 C 14.546875 -7.742188 14.472656 -8.273438 14.671875 -8.796875 C 14.878906 -9.316406 15.367188 -9.6875 16.140625 -9.90625 C 16.472656 -10 16.707031 -10.179688 16.84375 -10.453125 C 16.988281 -10.734375 16.96875 -11.054688 16.78125 -11.421875 C 16.601562 -11.796875 16.1875 -12.128906 15.53125 -12.421875 C 15.300781 -12.523438 14.960938 -12.535156 14.515625 -12.453125 C 14.066406 -12.367188 13.613281 -12.207031 13.15625 -11.96875 C 12.707031 -11.738281 12.332031 -11.4375 12.03125 -11.0625 C 11.738281 -10.695312 11.613281 -10.257812 11.65625 -9.75 C 11.695312 -9.25 11.988281 -8.703125 12.53125 -8.109375 C 13.050781 -7.546875 13.617188 -6.976562 14.234375 -6.40625 C 14.847656 -5.832031 15.441406 -5.226562 16.015625 -4.59375 C 16.597656 -3.957031 17.082031 -3.285156 17.46875 -2.578125 C 17.863281 -1.867188 18.101562 -1.125 18.1875 -0.34375 C 18.269531 0.4375 18.113281 1.265625 17.71875 2.140625 C 17.269531 3.128906 16.582031 3.882812 15.65625 4.40625 C 14.738281 4.925781 13.753906 5.203125 12.703125 5.234375 C 11.960938 5.285156 11.179688 5.21875 10.359375 5.03125 C 9.535156 4.84375 8.71875 4.566406 7.90625 4.203125 C 6.9375 3.765625 6.035156 3.21875 5.203125 2.5625 C 4.367188 1.914062 3.679688 1.179688 3.140625 0.359375 C 2.597656 -0.453125 2.273438 -1.3125 2.171875 -2.21875 Z M 2.171875 -2.21875 "/></g></g></g><g fill="#483d43" fill-opacity="1"><g transform="translate(243.206673, 110.702616)"><g><path d="M 10.953125 3.0625 C 9.734375 3.738281 8.488281 4.050781 7.21875 4 C 5.957031 3.945312 4.878906 3.65625 3.984375 3.125 C 3.210938 2.664062 2.640625 2.0625 2.265625 1.3125 C 1.898438 0.5625 1.84375 -0.265625 2.09375 -1.171875 C 2.34375 -2.078125 3.003906 -3 4.078125 -3.9375 C 5.160156 -4.882812 6.078125 -5.835938 6.828125 -6.796875 C 7.578125 -7.753906 8.226562 -8.726562 8.78125 -9.71875 C 9.476562 -11.019531 9.769531 -12.050781 9.65625 -12.8125 C 9.539062 -13.582031 9.164062 -14.25 8.53125 -14.8125 L 9.15625 -15.4375 C 9.476562 -15.238281 9.925781 -15.015625 10.5 -14.765625 C 11.070312 -14.515625 11.71875 -14.304688 12.4375 -14.140625 C 13.15625 -13.972656 13.914062 -13.890625 14.71875 -13.890625 C 15.519531 -13.898438 16.320312 -14.050781 17.125 -14.34375 C 17.925781 -14.632812 18.6875 -15.125 19.40625 -15.8125 L 20.15625 -15.375 C 19.476562 -14.6875 18.828125 -13.976562 18.203125 -13.25 C 17.585938 -12.53125 17.003906 -11.804688 16.453125 -11.078125 L 18.828125 -9.65625 L 18.515625 -8.84375 L 15.9375 -10.390625 C 15.039062 -9.148438 14.222656 -7.878906 13.484375 -6.578125 C 12.753906 -5.273438 12.109375 -3.9375 11.546875 -2.5625 C 11.078125 -2.757812 10.460938 -2.898438 9.703125 -2.984375 C 8.941406 -3.078125 8.15625 -3.097656 7.34375 -3.046875 C 6.53125 -2.992188 5.773438 -2.84375 5.078125 -2.59375 C 4.378906 -2.351562 3.84375 -1.988281 3.46875 -1.5 C 3.09375 -1.007812 2.972656 -0.363281 3.109375 0.4375 C 3.179688 0.84375 3.328125 1.21875 3.546875 1.5625 C 3.765625 1.90625 4.03125 2.171875 4.34375 2.359375 C 4.664062 2.554688 4.988281 2.644531 5.3125 2.625 C 5.925781 2.625 6.421875 2.363281 6.796875 1.84375 C 7.179688 1.332031 7.425781 0.71875 7.53125 0 C 7.632812 -0.71875 7.5625 -1.382812 7.3125 -2 C 8.25 -2.125 9.066406 -2.128906 9.765625 -2.015625 C 10.460938 -1.910156 11.039062 -1.71875 11.5 -1.4375 C 12.113281 -1.070312 12.5 -0.609375 12.65625 -0.046875 C 12.820312 0.503906 12.765625 1.0625 12.484375 1.625 C 12.210938 2.1875 11.703125 2.664062 10.953125 3.0625 Z M 10.953125 3.0625 "/></g></g></g><path stroke-linecap="round" transform="matrix(0.75, 0, 0, 0.75, 56.454061, 256.332259)" fill="none" stroke-linejoin="miter" d="M 1.998752 1.999696 L 23.436254 1.999696 " stroke="#878d5d" stroke-width="4" stroke-opacity="1" stroke-miterlimit="4"/><path stroke-linecap="round" transform="matrix(0.75, 0, 0, 0.75, 299.467631, 254.695646)" fill="none" stroke-linejoin="miter" d="M 2.001492 1.999555 L 23.438993 1.999555 " stroke="#878d5d" stroke-width="4" stroke-opacity="1" stroke-miterlimit="4"/><path stroke-linecap="round" transform="matrix(0.75, 0, 0, 0.75, 56.454061, 189.724881)" fill="none" stroke-linejoin="miter" d="M 1.998752 2.002242 L 23.436254 2.002242 " stroke="#878d5d" stroke-width="4" stroke-opacity="1" stroke-miterlimit="4"/><path stroke-linecap="round" transform="matrix(0.75, 0, 0, 0.75, 299.467631, 188.088268)" fill="none" stroke-linejoin="miter" d="M 2.001492 2.002101 L 23.438993 2.002101 " stroke="#878d5d" stroke-width="4" stroke-opacity="1" stroke-miterlimit="4"/><g mask="url(#6f259eb6b6)"><g transform="matrix(1, 0, 0, 1, 75, 140)"><g clip-path="url(#b9ec7c801d)"><g clip-path="url(#ea9d87c352)"><path fill="#000000" d="M 12.183594 32.082031 L 11.832031 32.347656 C 10.75 34.027344 10.023438 37.113281 9.652344 41.605469 C 7.621094 44.050781 6.484375 45.90625 6.238281 47.167969 C 5.480469 52.183594 5.582031 56.710938 6.546875 60.75 C 5.4375 62.390625 4.757812 64.433594 4.507812 66.878906 C 4.582031 67.917969 4.738281 68.960938 4.980469 70.011719 C 4.996094 70.53125 5.539062 72.117188 6.613281 74.773438 C 7.589844 76.910156 8.894531 79.066406 10.527344 81.246094 C 6.65625 81.59375 3.398438 82.703125 0.75 84.574219 C 0.589844 85.003906 0.613281 85.34375 0.820312 85.589844 C 2.695312 86.738281 3.546875 87.460938 3.367188 87.761719 C 3.402344 87.847656 3.289062 88.089844 3.027344 88.480469 L 1.277344 90.957031 C 1.066406 91.632812 1.308594 92.398438 2.003906 93.257812 C 2.539062 93.765625 4.425781 94.375 7.664062 95.09375 C 7.890625 95.09375 8.050781 96.140625 8.144531 98.230469 C 8.328125 98.675781 8.527344 98.886719 8.742188 98.855469 C 11.480469 98.328125 15.5 95.464844 20.792969 90.277344 C 31.1875 94.484375 39.09375 96.679688 44.507812 96.863281 C 45.746094 96.832031 46.363281 96.15625 46.355469 94.832031 C 50.050781 94.980469 53.355469 94.847656 56.277344 94.4375 C 61.121094 93.527344 64.164062 92.574219 65.410156 91.585938 C 65.714844 91.441406 65.558594 91.242188 64.933594 90.992188 L 40.515625 83.910156 C 37.285156 82.875 35.695312 82.238281 35.742188 82.003906 C 35.445312 81.425781 35.578125 80.886719 36.140625 80.398438 C 37.570312 79.132812 39.78125 77.777344 42.769531 76.339844 C 43.054688 76.125 43.140625 75.9375 43.03125 75.78125 C 41.644531 74.59375 39.453125 73.464844 36.449219 72.390625 C 35.398438 72.28125 33.078125 72.441406 29.484375 72.875 C 28.632812 72.429688 27.3125 70.925781 25.53125 68.359375 C 23.992188 66.121094 22.683594 63.59375 21.601562 60.773438 C 17.898438 44.136719 14.761719 34.574219 12.183594 32.082031 " fill-opacity="1" fill-rule="nonzero"/></g><g clip-path="url(#ec1e7fb903)"><path fill="#000000" d="M 115.960938 76.484375 L 115.6875 76.488281 C 111.828125 77.085938 107.8125 78.332031 103.640625 80.226562 L 81.742188 90.507812 C 79.75 91.550781 78.621094 92.394531 78.355469 93.042969 C 78.328125 93.351562 78.445312 93.546875 78.707031 93.632812 L 81.953125 93.960938 C 85.210938 92.949219 87.128906 92.433594 87.699219 92.40625 C 89.097656 92.890625 92.664062 92.726562 98.402344 91.914062 C 99.078125 91.9375 99.6875 92.21875 100.234375 92.765625 C 100.960938 93.804688 101.398438 94.894531 101.542969 96.027344 C 101.152344 100.375 101.128906 102.988281 101.46875 103.871094 C 101.742188 105.6875 102.394531 107.546875 103.433594 109.445312 L 103.921875 111.640625 C 104 112.636719 103.847656 115.417969 103.472656 119.976562 C 103.558594 120.96875 103.703125 121.480469 103.898438 121.507812 C 104.183594 121.570312 104.628906 121.195312 105.230469 120.378906 C 106.476562 118.640625 107.59375 116.917969 108.578125 115.210938 C 111.230469 110.695312 112.878906 107.398438 113.527344 105.324219 C 114.132812 103.457031 114.511719 101.476562 114.65625 99.378906 C 114.460938 92.390625 114.4375 87.289062 114.589844 84.070312 C 115.792969 83.289062 117.3125 82.125 119.144531 80.570312 L 122.039062 79.484375 L 117.335938 76.671875 C 116.957031 76.546875 116.5 76.488281 115.960938 76.484375 " fill-opacity="1" fill-rule="nonzero"/></g><path fill="#000000" d="M 124.496094 17.308594 L 124.457031 17.3125 C 124.347656 17.335938 124.265625 17.386719 124.214844 17.46875 C 123.769531 19.914062 123.394531 21.328125 123.09375 21.71875 C 122.820312 22.230469 121.726562 23.390625 119.8125 25.191406 C 119.621094 25.398438 119.457031 25.746094 119.320312 26.238281 C 119.25 26.539062 119.234375 27.027344 119.277344 27.703125 C 119.90625 31.941406 120.183594 34.554688 120.105469 35.539062 C 120.082031 35.894531 120.007812 36.320312 119.878906 36.820312 C 119.660156 37.585938 119.246094 38.5625 118.644531 39.753906 L 118.46875 40.789062 C 118.300781 43.367188 119.796875 46.726562 122.957031 50.875 C 118.699219 50.863281 115.835938 50.945312 114.367188 51.117188 C 111.371094 51.425781 109.59375 51.988281 109.03125 52.804688 C 108.992188 53.101562 109.0625 53.394531 109.238281 53.6875 L 111.449219 55.636719 C 110.804688 57.027344 110.476562 57.867188 110.460938 58.164062 C 110.328125 58.597656 110.359375 59.027344 110.554688 59.449219 C 110.832031 59.96875 111.972656 60.355469 113.96875 60.609375 C 114.648438 61.859375 115.183594 62.5 115.578125 62.53125 C 116.234375 62.449219 116.796875 62.242188 117.257812 61.914062 L 122.503906 57.8125 C 123.242188 57.257812 123.695312 56.953125 123.867188 56.890625 C 125.992188 57.382812 127.914062 57.460938 129.632812 57.125 C 130.714844 57.007812 132.28125 56.457031 134.339844 55.46875 C 137.101562 54.289062 139.734375 52.292969 142.242188 49.480469 L 145.679688 48.046875 L 145.796875 47.738281 C 145.839844 47.339844 145.34375 46.785156 144.304688 46.078125 C 143.953125 45.761719 142.28125 45.414062 139.285156 45.035156 C 138.980469 44.925781 138.808594 44.640625 138.761719 44.183594 C 138.980469 42.089844 139.449219 40.027344 140.175781 37.988281 L 144.410156 26.867188 C 144.921875 25.121094 144.972656 23.878906 144.5625 23.140625 C 144.105469 22.660156 143.496094 22.558594 142.734375 22.839844 C 142.101562 23.253906 140.921875 24.269531 139.191406 25.894531 C 138.648438 26.15625 137.449219 26.492188 135.585938 26.898438 C 135.085938 27.117188 134.742188 27.328125 134.558594 27.53125 C 134.039062 28.183594 133.695312 28.9375 133.527344 29.796875 C 133.375 30.246094 133.175781 32.710938 132.933594 37.195312 C 132.914062 37.328125 132.816406 37.4375 132.636719 37.523438 C 132.050781 36.5 131.144531 34.304688 129.921875 30.9375 C 129.207031 27.707031 128.414062 24.667969 127.546875 21.8125 C 126.511719 19.738281 125.851562 18.554688 125.570312 18.265625 C 125.136719 17.667969 124.777344 17.347656 124.496094 17.308594 " fill-opacity="1" fill-rule="nonzero"/><path fill="#000000" d="M 169.476562 41.113281 L 169.421875 41.121094 C 169.296875 41.183594 169.230469 41.289062 169.222656 41.441406 C 169.394531 44.152344 169.425781 45.648438 169.316406 45.921875 C 168.550781 47.308594 168.113281 48.226562 168.011719 48.679688 C 167.796875 49.332031 167.683594 49.921875 167.679688 50.445312 C 167.570312 51.363281 167.707031 52.921875 168.09375 55.117188 C 168.367188 56.375 168.765625 57.644531 169.292969 58.925781 C 168.808594 61.09375 168.613281 62.582031 168.707031 63.394531 C 169.34375 66.128906 171.367188 68.796875 174.765625 71.398438 L 168.84375 73.847656 C 167.605469 74.605469 166.988281 75.234375 166.992188 75.742188 C 167.027344 76.070312 167.113281 76.308594 167.25 76.457031 C 168.484375 77.496094 169.070312 78.054688 169.007812 78.132812 L 169.902344 81.671875 C 170.238281 81.9375 171.195312 82.199219 172.773438 82.460938 L 174.945312 84.15625 L 175.097656 84.15625 C 175.269531 84.15625 175.496094 83.988281 175.769531 83.648438 C 177.421875 80.714844 178.488281 78.914062 178.972656 78.246094 C 179.707031 77.234375 180.183594 76.714844 180.40625 76.6875 C 180.847656 76.574219 181.230469 76.589844 181.5625 76.726562 C 183.648438 78.199219 185.226562 79.003906 186.300781 79.140625 C 188.457031 79.578125 191.183594 79.667969 194.488281 79.414062 C 195.324219 79.269531 195.808594 79.078125 195.949219 78.84375 C 196.105469 78.753906 196.195312 78.363281 196.226562 77.675781 C 196.261719 77.597656 196.367188 77.507812 196.535156 77.40625 C 201.050781 77.082031 204.410156 75.597656 206.605469 72.964844 C 206.46875 72.667969 206.117188 72.480469 205.554688 72.40625 C 196.179688 71.335938 191.492188 70.652344 191.496094 70.355469 C 190.285156 69.851562 189.734375 69.339844 189.851562 68.816406 C 189.859375 68.242188 190.554688 67.496094 191.929688 66.585938 C 192.078125 66.121094 192.046875 65.808594 191.835938 65.640625 C 190.800781 64.988281 188.253906 64.816406 184.1875 65.128906 C 183.953125 65.085938 183.574219 64.859375 183.050781 64.457031 C 182.203125 63.828125 181.308594 62.683594 180.363281 61.019531 C 178.292969 54.90625 176.769531 51.089844 175.789062 49.574219 C 173.46875 45.710938 171.367188 42.890625 169.476562 41.113281 " fill-opacity="1" fill-rule="nonzero"/><g clip-path="url(#85b39380ad)"><path fill="#000000" d="M 209.613281 8.109375 L 209.601562 8.199219 C 209.597656 8.199219 209.59375 8.199219 209.589844 8.203125 L 209.582031 8.199219 L 209.574219 8.191406 C 209.574219 8.1875 209.574219 8.1875 209.574219 8.183594 C 209.574219 8.179688 209.574219 8.175781 209.574219 8.171875 C 209.578125 8.167969 209.578125 8.164062 209.582031 8.160156 L 209.585938 8.144531 L 209.59375 8.128906 L 209.605469 8.109375 L 209.613281 8.109375 M 211.0625 0.398438 L 210.789062 0.398438 C 210.300781 0.328125 209.703125 0.507812 208.996094 0.933594 C 208.421875 1.308594 206.621094 2.726562 203.589844 5.179688 C 198.511719 8.535156 195.375 10.648438 194.183594 11.515625 C 190.097656 14.472656 187.722656 16.558594 187.050781 17.773438 C 186.960938 18.109375 187.304688 18.226562 188.078125 18.128906 L 192.480469 16.5625 C 195.007812 16.269531 196.429688 16.066406 196.746094 15.949219 C 197.832031 15.554688 199.207031 14.933594 200.875 14.089844 C 201.644531 13.992188 202.195312 14.097656 202.527344 14.40625 C 203.183594 14.914062 203.710938 15.703125 204.105469 16.773438 C 204.460938 17.710938 204.804688 19.316406 205.132812 21.59375 C 205.25 22.0625 205.386719 22.460938 205.535156 22.789062 L 208.371094 27.128906 C 208.460938 27.347656 208.546875 27.761719 208.628906 28.371094 C 208.738281 30.671875 208.84375 32.175781 208.949219 32.882812 C 209.164062 33.753906 209.40625 34.136719 209.679688 34.03125 C 210.484375 33.734375 211.226562 32.976562 211.910156 31.761719 C 212.179688 31.253906 212.40625 30.65625 212.589844 29.96875 C 213.066406 26.976562 213.359375 25.449219 213.46875 25.390625 C 213.527344 25.226562 213.632812 25.117188 213.78125 25.058594 C 213.941406 24.984375 214.296875 24.960938 214.84375 24.988281 C 214.925781 24.9375 215 24.871094 215.074219 24.792969 C 215.375 24.386719 215.53125 23.792969 215.550781 23.003906 C 215.683594 17.257812 214.203125 11.6875 211.117188 6.285156 L 214.703125 2.261719 C 215.117188 1.726562 215.324219 1.304688 215.324219 0.996094 C 215.300781 0.820312 215.070312 0.699219 214.636719 0.628906 C 213.132812 0.484375 211.941406 0.40625 211.0625 0.398438 " fill-opacity="1" fill-rule="nonzero"/></g></g></g></g><path fill="#878d5d" d="M 224.34375 213.496094 C 224.320312 214.027344 223.921875 214.449219 223.460938 214.40625 C 222.144531 214.328125 220.835938 214.292969 219.558594 214.292969 C 206.277344 214.292969 198.207031 218.5 193.765625 222.027344 C 193.625 222.148438 193.453125 222.199219 193.289062 222.199219 C 193.027344 222.199219 192.769531 222.054688 192.605469 221.777344 C 192.339844 221.339844 192.433594 220.738281 192.816406 220.429688 C 197.453125 216.75 205.847656 212.355469 219.558594 212.355469 C 220.859375 212.355469 222.207031 212.398438 223.550781 212.476562 C 224.007812 212.507812 224.367188 212.957031 224.34375 213.496094 " fill-opacity="1" fill-rule="nonzero"/><path fill="#878d5d" d="M 225.222656 204.535156 C 225.199219 205.066406 224.792969 205.488281 224.320312 205.453125 C 222.964844 205.378906 221.617188 205.335938 220.308594 205.335938 C 206.660156 205.335938 198.363281 209.539062 193.804688 213.074219 C 193.65625 213.1875 193.484375 213.246094 193.3125 213.246094 C 193.042969 213.246094 192.777344 213.101562 192.605469 212.828125 C 192.332031 212.386719 192.433594 211.789062 192.824219 211.480469 C 197.582031 207.796875 206.214844 203.402344 220.308594 203.402344 C 221.640625 203.402344 223.019531 203.4375 224.40625 203.523438 C 224.878906 203.550781 225.246094 204.003906 225.222656 204.535156 " fill-opacity="1" fill-rule="nonzero"/><path fill="#878d5d" d="M 225.222656 195.585938 C 225.199219 196.117188 224.792969 196.535156 224.320312 196.503906 C 222.964844 196.425781 221.617188 196.382812 220.308594 196.382812 C 206.660156 196.382812 198.363281 200.585938 193.804688 204.117188 C 193.65625 204.234375 193.484375 204.289062 193.3125 204.289062 C 193.042969 204.289062 192.777344 204.140625 192.605469 203.875 C 192.332031 203.429688 192.433594 202.828125 192.824219 202.527344 C 197.582031 198.835938 206.214844 194.441406 220.308594 194.441406 C 221.640625 194.441406 223.019531 194.484375 224.40625 194.5625 C 224.878906 194.589844 225.246094 195.042969 225.222656 195.585938 " fill-opacity="1" fill-rule="nonzero"/><path fill="#878d5d" d="M 151.378906 213.496094 C 151.402344 214.027344 151.800781 214.449219 152.261719 214.40625 C 153.578125 214.328125 154.886719 214.292969 156.164062 214.292969 C 169.445312 214.292969 177.515625 218.5 181.957031 222.027344 C 182.097656 222.148438 182.269531 222.199219 182.433594 222.199219 C 182.699219 222.199219 182.953125 222.054688 183.117188 221.777344 C 183.382812 221.339844 183.289062 220.738281 182.90625 220.429688 C 178.273438 216.75 169.875 212.355469 156.164062 212.355469 C 154.863281 212.355469 153.515625 212.398438 152.175781 212.476562 C 151.714844 212.507812 151.355469 212.957031 151.378906 213.496094 " fill-opacity="1" fill-rule="nonzero"/><path fill="#878d5d" d="M 150.5 204.535156 C 150.523438 205.066406 150.929688 205.488281 151.402344 205.453125 C 152.757812 205.378906 154.105469 205.335938 155.417969 205.335938 C 169.066406 205.335938 177.363281 209.539062 181.917969 213.074219 C 182.066406 213.1875 182.238281 213.246094 182.410156 213.246094 C 182.683594 213.246094 182.945312 213.101562 183.117188 212.828125 C 183.390625 212.386719 183.289062 211.789062 182.898438 211.480469 C 178.140625 207.796875 169.507812 203.402344 155.417969 203.402344 C 154.085938 203.402344 152.703125 203.4375 151.316406 203.523438 C 150.84375 203.550781 150.476562 204.003906 150.5 204.535156 " fill-opacity="1" fill-rule="nonzero"/><path fill="#878d5d" d="M 150.5 195.585938 C 150.523438 196.117188 150.929688 196.535156 151.402344 196.503906 C 152.757812 196.425781 154.105469 196.382812 155.417969 196.382812 C 169.066406 196.382812 177.363281 200.585938 181.917969 204.117188 C 182.066406 204.234375 182.238281 204.289062 182.410156 204.289062 C 182.683594 204.289062 182.945312 204.140625 183.117188 203.875 C 183.390625 203.429688 183.289062 202.828125 182.898438 202.527344 C 178.140625 198.835938 169.507812 194.441406 155.417969 194.441406 C 154.085938 194.441406 152.703125 194.484375 151.316406 194.5625 C 150.84375 194.589844 150.476562 195.042969 150.5 195.585938 " fill-opacity="1" fill-rule="nonzero"/><g clip-path="url(#bfd2ebce72)"><path fill="#878d5d" d="M 190.542969 197.660156 C 191.171875 197.136719 191.855469 196.613281 192.585938 196.109375 C 197.632812 192.640625 206.816406 188.503906 221.964844 188.503906 C 224.402344 188.503906 226.917969 188.617188 229.464844 188.820312 L 225.867188 242.53125 C 223.25 242.324219 220.695312 242.210938 218.257812 242.210938 C 207.792969 242.210938 199.246094 244.179688 192.851562 248.066406 C 192.039062 248.554688 191.265625 249.070312 190.542969 249.621094 Z M 193.734375 249.535156 C 198.457031 246.667969 206.148438 243.929688 218.257812 243.929688 C 221.089844 243.929688 224.152344 244.074219 227.464844 244.402344 L 231.207031 188.4375 L 231.285156 187.269531 C 227.964844 186.933594 224.855469 186.789062 221.964844 186.789062 C 206.199219 186.789062 196.679688 191.207031 191.617188 194.691406 C 190.464844 195.488281 189.539062 196.238281 188.828125 196.871094 L 188.828125 253.4375 C 189.898438 252.296875 191.480469 250.898438 193.734375 249.535156 " fill-opacity="1" fill-rule="nonzero"/></g><path fill="#878d5d" d="M 193.734375 239.9375 C 198.035156 236.410156 205.886719 232.199219 218.78125 232.199219 C 220.019531 232.199219 221.296875 232.238281 222.574219 232.316406 C 223.019531 232.351562 223.402344 231.941406 223.429688 231.398438 C 223.457031 230.867188 223.105469 230.410156 222.660156 230.386719 C 221.351562 230.308594 220.050781 230.265625 218.78125 230.265625 C 205.460938 230.265625 197.304688 234.660156 192.808594 238.34375 C 192.433594 238.644531 192.339844 239.253906 192.597656 239.691406 C 192.753906 239.964844 193.011719 240.109375 193.269531 240.109375 C 193.429688 240.109375 193.585938 240.058594 193.734375 239.9375 " fill-opacity="1" fill-rule="nonzero"/><path fill="#878d5d" d="M 193.289062 231.152344 C 193.453125 231.152344 193.625 231.097656 193.765625 230.988281 C 198.207031 227.460938 206.277344 223.246094 219.558594 223.246094 C 220.835938 223.246094 222.144531 223.28125 223.460938 223.359375 C 223.921875 223.398438 224.320312 222.980469 224.34375 222.449219 C 224.367188 221.914062 224.007812 221.460938 223.550781 221.433594 C 222.207031 221.351562 220.859375 221.304688 219.558594 221.304688 C 205.847656 221.304688 197.453125 225.699219 192.816406 229.390625 C 192.433594 229.691406 192.339844 230.300781 192.605469 230.738281 C 192.769531 231.011719 193.027344 231.152344 193.289062 231.152344 " fill-opacity="1" fill-rule="nonzero"/><g clip-path="url(#a276be3fe7)"><path fill="#878d5d" d="M 232.65625 188.554688 L 228.921875 244.503906 L 228.820312 245.996094 L 227.328125 245.851562 C 224.167969 245.535156 221.121094 245.378906 218.257812 245.378906 C 208.273438 245.378906 201.433594 247.257812 196.824219 249.5 C 193.417969 251.15625 191.238281 253 189.898438 254.433594 L 188.828125 255.585938 L 186.898438 255.585938 L 185.824219 254.433594 C 184.484375 253 182.304688 251.15625 178.898438 249.5 C 174.289062 247.257812 167.449219 245.378906 157.46875 245.378906 C 154.601562 245.378906 151.554688 245.535156 148.394531 245.851562 L 146.902344 245.996094 L 146.800781 244.503906 L 143.066406 188.554688 L 136.441406 188.058594 L 141.519531 250.074219 L 185.472656 258.332031 L 190.25 258.332031 L 234.203125 250.074219 L 239.285156 188.058594 L 232.65625 188.554688 " fill-opacity="1" fill-rule="nonzero"/></g><g clip-path="url(#bc94c2f94f)"><path fill="#878d5d" d="M 153.761719 188.503906 C 168.910156 188.503906 178.089844 192.640625 183.136719 196.109375 C 183.867188 196.613281 184.554688 197.136719 185.179688 197.660156 L 185.179688 249.621094 C 184.460938 249.070312 183.6875 248.554688 182.871094 248.066406 C 176.476562 244.179688 167.929688 242.210938 157.46875 242.210938 C 155.03125 242.210938 152.472656 242.324219 149.855469 242.53125 L 146.257812 188.820312 C 148.808594 188.617188 151.324219 188.503906 153.761719 188.503906 Z M 148.257812 244.402344 C 151.570312 244.074219 154.636719 243.929688 157.46875 243.929688 C 169.578125 243.929688 177.265625 246.667969 181.988281 249.535156 C 184.246094 250.898438 185.824219 252.296875 186.898438 253.4375 L 186.898438 196.871094 C 186.183594 196.238281 185.257812 195.488281 184.109375 194.691406 C 179.042969 191.207031 169.527344 186.789062 153.761719 186.789062 C 150.867188 186.789062 147.761719 186.933594 144.441406 187.269531 L 144.515625 188.4375 L 148.257812 244.402344 " fill-opacity="1" fill-rule="nonzero"/></g><path fill="#878d5d" d="M 156.941406 230.265625 C 155.671875 230.265625 154.371094 230.308594 153.0625 230.386719 C 152.621094 230.410156 152.269531 230.867188 152.292969 231.398438 C 152.324219 231.941406 152.703125 232.351562 153.148438 232.316406 C 154.425781 232.238281 155.703125 232.199219 156.941406 232.199219 C 169.835938 232.199219 177.6875 236.410156 181.988281 239.9375 C 182.136719 240.058594 182.292969 240.109375 182.457031 240.109375 C 182.714844 240.109375 182.96875 239.964844 183.125 239.691406 C 183.382812 239.253906 183.289062 238.644531 182.914062 238.34375 C 178.421875 234.660156 170.265625 230.265625 156.941406 230.265625 " fill-opacity="1" fill-rule="nonzero"/><path fill="#878d5d" d="M 152.261719 223.359375 C 153.578125 223.28125 154.886719 223.246094 156.164062 223.246094 C 169.445312 223.246094 177.519531 227.460938 181.957031 230.988281 C 182.097656 231.097656 182.269531 231.152344 182.433594 231.152344 C 182.699219 231.152344 182.953125 231.011719 183.117188 230.738281 C 183.382812 230.300781 183.289062 229.691406 182.90625 229.390625 C 178.273438 225.699219 169.875 221.304688 156.164062 221.304688 C 154.863281 221.304688 153.515625 221.351562 152.175781 221.433594 C 151.714844 221.460938 151.355469 221.914062 151.378906 222.449219 C 151.402344 222.980469 151.800781 223.398438 152.261719 223.359375 " fill-opacity="1" fill-rule="nonzero"/><g clip-path="url(#146e22b558)"><path fill="#878d5d" d="M 232.0625 275.292969 L 143.214844 275.292969 C 142.453125 275.292969 141.695312 275.253906 140.9375 275.179688 C 140.183594 275.101562 139.429688 274.992188 138.6875 274.839844 C 137.941406 274.691406 137.203125 274.507812 136.476562 274.285156 C 135.75 274.066406 135.035156 273.808594 134.332031 273.515625 C 133.628906 273.226562 132.941406 272.902344 132.273438 272.542969 C 131.601562 272.183594 130.953125 271.792969 130.320312 271.371094 C 129.6875 270.949219 129.078125 270.496094 128.488281 270.011719 C 127.902344 269.53125 127.339844 269.019531 126.800781 268.484375 C 126.265625 267.945312 125.753906 267.382812 125.273438 266.792969 C 124.789062 266.207031 124.335938 265.597656 123.914062 264.964844 C 123.492188 264.332031 123.101562 263.683594 122.742188 263.011719 C 122.382812 262.339844 122.058594 261.65625 121.765625 260.953125 C 121.476562 260.25 121.21875 259.535156 121 258.808594 C 120.777344 258.082031 120.59375 257.34375 120.441406 256.597656 C 120.292969 255.851562 120.183594 255.101562 120.105469 254.34375 C 120.03125 253.589844 119.992188 252.832031 119.992188 252.070312 L 119.992188 189.785156 C 119.988281 188.320312 120.125 186.867188 120.40625 185.425781 C 120.683594 183.984375 121.097656 182.585938 121.648438 181.226562 C 122.199219 179.863281 122.875 178.570312 123.675781 177.339844 C 124.476562 176.113281 125.386719 174.972656 126.410156 173.917969 L 173.941406 124.765625 C 174.382812 124.304688 174.847656 123.867188 175.332031 123.457031 C 175.820312 123.042969 176.324219 122.65625 176.847656 122.292969 C 177.375 121.929688 177.917969 121.597656 178.476562 121.289062 C 179.035156 120.980469 179.609375 120.703125 180.195312 120.453125 C 180.78125 120.203125 181.378906 119.984375 181.988281 119.792969 C 182.597656 119.601562 183.214844 119.445312 183.839844 119.316406 C 184.464844 119.191406 185.09375 119.09375 185.730469 119.03125 C 186.363281 118.964844 187 118.933594 187.640625 118.933594 C 188.277344 118.933594 188.914062 118.964844 189.546875 119.03125 C 190.183594 119.09375 190.8125 119.191406 191.4375 119.316406 C 192.0625 119.445312 192.679688 119.601562 193.289062 119.792969 C 193.898438 119.984375 194.496094 120.203125 195.082031 120.453125 C 195.671875 120.703125 196.242188 120.980469 196.800781 121.289062 C 197.359375 121.597656 197.902344 121.929688 198.429688 122.292969 C 198.953125 122.65625 199.457031 123.042969 199.945312 123.457031 C 200.429688 123.867188 200.894531 124.304688 201.335938 124.765625 L 253.296875 178.5 C 253.625 178.832031 253.914062 179.195312 254.167969 179.582031 C 254.421875 179.972656 254.632812 180.386719 254.804688 180.816406 C 254.976562 181.25 255.105469 181.695312 255.191406 182.152344 C 255.273438 182.609375 255.3125 183.070312 255.308594 183.539062 C 255.300781 184.003906 255.25 184.464844 255.152344 184.917969 C 255.054688 185.375 254.910156 185.816406 254.726562 186.242188 C 254.542969 186.667969 254.316406 187.074219 254.054688 187.457031 C 253.789062 187.839844 253.488281 188.191406 253.152344 188.515625 C 252.820312 188.839844 252.457031 189.128906 252.066406 189.378906 C 251.671875 189.632812 251.261719 189.84375 250.828125 190.011719 C 250.394531 190.183594 249.949219 190.308594 249.492188 190.390625 C 249.03125 190.472656 248.570312 190.511719 248.105469 190.5 C 247.640625 190.492188 247.179688 190.4375 246.726562 190.339844 C 246.269531 190.238281 245.832031 190.097656 245.40625 189.910156 C 244.976562 189.722656 244.574219 189.496094 244.191406 189.230469 C 243.8125 188.960938 243.460938 188.660156 243.136719 188.324219 L 191.171875 134.613281 C 190.945312 134.371094 190.695312 134.152344 190.425781 133.964844 C 190.15625 133.773438 189.867188 133.613281 189.5625 133.480469 C 189.261719 133.347656 188.945312 133.25 188.621094 133.183594 C 188.296875 133.113281 187.96875 133.082031 187.640625 133.082031 C 187.308594 133.082031 186.980469 133.113281 186.65625 133.183594 C 186.332031 133.25 186.015625 133.347656 185.714844 133.480469 C 185.410156 133.613281 185.121094 133.773438 184.851562 133.964844 C 184.582031 134.152344 184.332031 134.371094 184.105469 134.613281 L 136.570312 183.746094 C 135.785156 184.558594 135.183594 185.488281 134.765625 186.535156 C 134.347656 187.585938 134.140625 188.675781 134.148438 189.804688 L 134.148438 252.070312 C 134.148438 252.667969 134.207031 253.257812 134.324219 253.84375 C 134.441406 254.425781 134.613281 254.996094 134.84375 255.546875 C 135.070312 256.097656 135.351562 256.621094 135.683594 257.117188 C 136.015625 257.613281 136.390625 258.070312 136.8125 258.492188 C 137.234375 258.914062 137.691406 259.289062 138.1875 259.621094 C 138.683594 259.953125 139.207031 260.234375 139.757812 260.460938 C 140.308594 260.691406 140.878906 260.863281 141.460938 260.980469 C 142.046875 261.097656 142.636719 261.15625 143.234375 261.15625 L 232.082031 261.15625 C 232.546875 261.15625 233.007812 261.203125 233.460938 261.292969 C 233.917969 261.382812 234.359375 261.515625 234.789062 261.695312 C 235.21875 261.871094 235.625 262.089844 236.011719 262.347656 C 236.394531 262.605469 236.753906 262.898438 237.082031 263.226562 C 237.410156 263.554688 237.703125 263.914062 237.960938 264.296875 C 238.21875 264.683594 238.4375 265.089844 238.613281 265.519531 C 238.789062 265.949219 238.925781 266.390625 239.015625 266.847656 C 239.105469 267.300781 239.152344 267.761719 239.152344 268.226562 C 239.152344 268.6875 239.105469 269.148438 239.015625 269.605469 C 238.925781 270.058594 238.789062 270.5 238.613281 270.929688 C 238.4375 271.359375 238.21875 271.765625 237.960938 272.152344 C 237.703125 272.535156 237.410156 272.894531 237.082031 273.222656 C 236.753906 273.550781 236.394531 273.84375 236.011719 274.101562 C 235.625 274.359375 235.21875 274.578125 234.789062 274.753906 C 234.359375 274.933594 233.917969 275.066406 233.460938 275.15625 C 233.007812 275.246094 232.546875 275.292969 232.082031 275.292969 Z M 232.0625 275.292969 " fill-opacity="1" fill-rule="nonzero"/></g><g fill="#483d43" fill-opacity="1"><g transform="translate(54.823013, 216.19909)"><g><path d="M 4.953125 0 L 0.46875 0 C 0.71875 -1.070312 0.898438 -2.207031 1.015625 -3.40625 C 1.140625 -4.601562 1.203125 -5.8125 1.203125 -7.03125 C 1.203125 -8.257812 1.144531 -9.472656 1.03125 -10.671875 C 0.914062 -11.867188 0.734375 -13.003906 0.484375 -14.078125 L 6.125 -14.078125 C 7.414062 -14.078125 8.515625 -13.925781 9.421875 -13.625 C 10.328125 -13.320312 11.035156 -12.921875 11.546875 -12.421875 C 12.066406 -11.929688 12.394531 -11.394531 12.53125 -10.8125 C 12.675781 -10.238281 12.628906 -9.664062 12.390625 -9.09375 C 12.160156 -8.53125 11.742188 -8.019531 11.140625 -7.5625 C 10.535156 -7.101562 9.75 -6.75 8.78125 -6.5 C 9.082031 -5.925781 9.410156 -5.320312 9.765625 -4.6875 C 10.128906 -4.050781 10.503906 -3.4375 10.890625 -2.84375 C 11.285156 -2.25 11.671875 -1.703125 12.046875 -1.203125 C 12.421875 -0.703125 12.765625 -0.300781 13.078125 0 L 7.515625 0 C 7.554688 -0.488281 7.523438 -1.066406 7.421875 -1.734375 C 7.316406 -2.398438 7.128906 -3.117188 6.859375 -3.890625 C 6.597656 -4.660156 6.25 -5.425781 5.8125 -6.1875 L 4.25 -6.1875 C 4.257812 -5.445312 4.300781 -4.695312 4.375 -3.9375 C 4.445312 -3.1875 4.535156 -2.472656 4.640625 -1.796875 C 4.742188 -1.117188 4.847656 -0.519531 4.953125 0 Z M 4.234375 -6.75 L 5.765625 -6.75 C 6.617188 -6.75 7.316406 -6.929688 7.859375 -7.296875 C 8.410156 -7.660156 8.789062 -8.15625 9 -8.78125 C 9.207031 -9.414062 9.234375 -10.125 9.078125 -10.90625 C 8.992188 -11.300781 8.851562 -11.703125 8.65625 -12.109375 C 8.46875 -12.515625 8.210938 -12.851562 7.890625 -13.125 C 7.566406 -13.40625 7.164062 -13.546875 6.6875 -13.546875 C 6.195312 -13.546875 5.789062 -13.347656 5.46875 -12.953125 C 5.15625 -12.566406 4.910156 -12.046875 4.734375 -11.390625 C 4.554688 -10.734375 4.425781 -10.003906 4.34375 -9.203125 C 4.269531 -8.398438 4.234375 -7.582031 4.234375 -6.75 Z M 4.234375 -6.75 "/></g></g></g><g fill="#483d43" fill-opacity="1"><g transform="translate(67.809883, 216.19909)"><g><path d="M 0.3125 -4.59375 C 0.3125 -5.375 0.441406 -6.097656 0.703125 -6.765625 C 0.960938 -7.429688 1.328125 -8.015625 1.796875 -8.515625 C 2.265625 -9.023438 2.816406 -9.421875 3.453125 -9.703125 C 4.097656 -9.992188 4.796875 -10.140625 5.546875 -10.140625 C 5.929688 -10.140625 6.328125 -10.09375 6.734375 -10 C 7.140625 -9.914062 7.515625 -9.773438 7.859375 -9.578125 C 8.203125 -9.390625 8.484375 -9.140625 8.703125 -8.828125 C 8.921875 -8.523438 9.039062 -8.144531 9.0625 -7.6875 C 9.082031 -7.175781 8.960938 -6.707031 8.703125 -6.28125 C 8.453125 -5.851562 8.101562 -5.472656 7.65625 -5.140625 C 7.21875 -4.816406 6.734375 -4.539062 6.203125 -4.3125 C 5.679688 -4.09375 5.164062 -3.925781 4.65625 -3.8125 C 4.144531 -3.707031 3.691406 -3.65625 3.296875 -3.65625 C 3.328125 -3.070312 3.441406 -2.507812 3.640625 -1.96875 C 3.847656 -1.4375 4.132812 -1 4.5 -0.65625 C 4.875 -0.320312 5.328125 -0.171875 5.859375 -0.203125 C 6.140625 -0.222656 6.320312 -0.34375 6.40625 -0.5625 C 6.488281 -0.78125 6.492188 -1.039062 6.421875 -1.34375 C 6.359375 -1.65625 6.238281 -1.957031 6.0625 -2.25 C 5.894531 -2.550781 5.695312 -2.78125 5.46875 -2.9375 C 5.882812 -3.269531 6.269531 -3.503906 6.625 -3.640625 C 6.988281 -3.785156 7.316406 -3.859375 7.609375 -3.859375 C 8.003906 -3.859375 8.316406 -3.753906 8.546875 -3.546875 C 8.773438 -3.335938 8.90625 -3.0625 8.9375 -2.71875 C 8.96875 -2.375 8.867188 -2 8.640625 -1.59375 C 8.285156 -1 7.796875 -0.53125 7.171875 -0.1875 C 6.554688 0.144531 5.90625 0.3125 5.21875 0.3125 C 4.445312 0.3125 3.757812 0.179688 3.15625 -0.078125 C 2.550781 -0.335938 2.035156 -0.695312 1.609375 -1.15625 C 1.191406 -1.613281 0.867188 -2.140625 0.640625 -2.734375 C 0.421875 -3.328125 0.3125 -3.945312 0.3125 -4.59375 Z M 3.5625 -6.734375 C 3.488281 -6.441406 3.421875 -6.0625 3.359375 -5.59375 C 3.304688 -5.125 3.28125 -4.628906 3.28125 -4.109375 C 3.789062 -4.140625 4.253906 -4.316406 4.671875 -4.640625 C 5.085938 -4.972656 5.4375 -5.378906 5.71875 -5.859375 C 6.007812 -6.347656 6.207031 -6.84375 6.3125 -7.34375 C 6.488281 -8.15625 6.507812 -8.75 6.375 -9.125 C 6.25 -9.5 6.050781 -9.6875 5.78125 -9.6875 C 5.539062 -9.6875 5.28125 -9.566406 5 -9.328125 C 4.726562 -9.085938 4.460938 -8.75 4.203125 -8.3125 C 3.941406 -7.875 3.726562 -7.347656 3.5625 -6.734375 Z M 3.5625 -6.734375 "/></g></g></g><g fill="#483d43" fill-opacity="1"><g transform="translate(54.372819, 238.672796)"><g><path d="M 3.71875 0 L 0.46875 0 C 0.71875 -1.070312 0.898438 -2.207031 1.015625 -3.40625 C 1.140625 -4.601562 1.203125 -5.8125 1.203125 -7.03125 C 1.203125 -8.257812 1.140625 -9.472656 1.015625 -10.671875 C 0.898438 -11.867188 0.71875 -13.003906 0.46875 -14.078125 L 4.953125 -14.078125 C 5.078125 -13.617188 5.304688 -13.101562 5.640625 -12.53125 C 5.984375 -11.957031 6.390625 -11.363281 6.859375 -10.75 C 7.335938 -10.132812 7.835938 -9.53125 8.359375 -8.9375 C 8.890625 -8.34375 9.40625 -7.789062 9.90625 -7.28125 C 10.414062 -6.769531 10.867188 -6.328125 11.265625 -5.953125 C 11.660156 -5.585938 11.960938 -5.328125 12.171875 -5.171875 C 12.222656 -5.953125 12.238281 -6.742188 12.21875 -7.546875 C 12.207031 -8.304688 12.101562 -9.078125 11.90625 -9.859375 C 11.71875 -10.648438 11.472656 -11.410156 11.171875 -12.140625 C 10.867188 -12.867188 10.535156 -13.515625 10.171875 -14.078125 L 13.421875 -14.078125 C 13.171875 -13.003906 12.984375 -11.867188 12.859375 -10.671875 C 12.742188 -9.472656 12.6875 -8.257812 12.6875 -7.03125 C 12.6875 -5.8125 12.742188 -4.601562 12.859375 -3.40625 C 12.984375 -2.207031 13.171875 -1.070312 13.421875 0 L 10.421875 0 C 10.328125 -0.320312 10.082031 -0.785156 9.6875 -1.390625 C 9.300781 -2.003906 8.8125 -2.707031 8.21875 -3.5 C 7.632812 -4.289062 6.984375 -5.128906 6.265625 -6.015625 C 5.546875 -6.898438 4.8125 -7.789062 4.0625 -8.6875 C 3.3125 -9.59375 2.597656 -10.453125 1.921875 -11.265625 C 1.734375 -9.804688 1.648438 -8.304688 1.671875 -6.765625 C 1.679688 -5.984375 1.78125 -5.1875 1.96875 -4.375 C 2.164062 -3.570312 2.421875 -2.796875 2.734375 -2.046875 C 3.046875 -1.296875 3.375 -0.613281 3.71875 0 Z M 3.71875 0 "/></g></g></g><g fill="#483d43" fill-opacity="1"><g transform="translate(68.261335, 238.672796)"><g><path d="M 0.3125 -4.59375 C 0.3125 -5.375 0.441406 -6.097656 0.703125 -6.765625 C 0.960938 -7.429688 1.328125 -8.015625 1.796875 -8.515625 C 2.265625 -9.023438 2.816406 -9.421875 3.453125 -9.703125 C 4.097656 -9.992188 4.796875 -10.140625 5.546875 -10.140625 C 5.929688 -10.140625 6.328125 -10.09375 6.734375 -10 C 7.140625 -9.914062 7.515625 -9.773438 7.859375 -9.578125 C 8.203125 -9.390625 8.484375 -9.140625 8.703125 -8.828125 C 8.921875 -8.523438 9.039062 -8.144531 9.0625 -7.6875 C 9.082031 -7.175781 8.960938 -6.707031 8.703125 -6.28125 C 8.453125 -5.851562 8.101562 -5.472656 7.65625 -5.140625 C 7.21875 -4.816406 6.734375 -4.539062 6.203125 -4.3125 C 5.679688 -4.09375 5.164062 -3.925781 4.65625 -3.8125 C 4.144531 -3.707031 3.691406 -3.65625 3.296875 -3.65625 C 3.328125 -3.070312 3.441406 -2.507812 3.640625 -1.96875 C 3.847656 -1.4375 4.132812 -1 4.5 -0.65625 C 4.875 -0.320312 5.328125 -0.171875 5.859375 -0.203125 C 6.140625 -0.222656 6.320312 -0.34375 6.40625 -0.5625 C 6.488281 -0.78125 6.492188 -1.039062 6.421875 -1.34375 C 6.359375 -1.65625 6.238281 -1.957031 6.0625 -2.25 C 5.894531 -2.550781 5.695312 -2.78125 5.46875 -2.9375 C 5.882812 -3.269531 6.269531 -3.503906 6.625 -3.640625 C 6.988281 -3.785156 7.316406 -3.859375 7.609375 -3.859375 C 8.003906 -3.859375 8.316406 -3.753906 8.546875 -3.546875 C 8.773438 -3.335938 8.90625 -3.0625 8.9375 -2.71875 C 8.96875 -2.375 8.867188 -2 8.640625 -1.59375 C 8.285156 -1 7.796875 -0.53125 7.171875 -0.1875 C 6.554688 0.144531 5.90625 0.3125 5.21875 0.3125 C 4.445312 0.3125 3.757812 0.179688 3.15625 -0.078125 C 2.550781 -0.335938 2.035156 -0.695312 1.609375 -1.15625 C 1.191406 -1.613281 0.867188 -2.140625 0.640625 -2.734375 C 0.421875 -3.328125 0.3125 -3.945312 0.3125 -4.59375 Z M 3.5625 -6.734375 C 3.488281 -6.441406 3.421875 -6.0625 3.359375 -5.59375 C 3.304688 -5.125 3.28125 -4.628906 3.28125 -4.109375 C 3.789062 -4.140625 4.253906 -4.316406 4.671875 -4.640625 C 5.085938 -4.972656 5.4375 -5.378906 5.71875 -5.859375 C 6.007812 -6.347656 6.207031 -6.84375 6.3125 -7.34375 C 6.488281 -8.15625 6.507812 -8.75 6.375 -9.125 C 6.25 -9.5 6.050781 -9.6875 5.78125 -9.6875 C 5.539062 -9.6875 5.28125 -9.566406 5 -9.328125 C 4.726562 -9.085938 4.460938 -8.75 4.203125 -8.3125 C 3.941406 -7.875 3.726562 -7.347656 3.5625 -6.734375 Z M 3.5625 -6.734375 "/></g></g></g><g fill="#483d43" fill-opacity="1"><g transform="translate(296.454142, 214.326477)"><g><path d="M 0.875 0 C 0.875 -0.925781 1.007812 -1.726562 1.28125 -2.40625 C 1.550781 -3.082031 1.90625 -3.675781 2.34375 -4.1875 C 2.789062 -4.695312 3.28125 -5.15625 3.8125 -5.5625 C 4.34375 -5.976562 4.875 -6.375 5.40625 -6.75 C 5.9375 -7.125 6.421875 -7.515625 6.859375 -7.921875 C 7.304688 -8.335938 7.660156 -8.800781 7.921875 -9.3125 C 8.191406 -9.832031 8.328125 -10.441406 8.328125 -11.140625 C 8.328125 -11.554688 8.21875 -11.898438 8 -12.171875 C 7.78125 -12.441406 7.503906 -12.644531 7.171875 -12.78125 C 6.847656 -12.925781 6.507812 -13.003906 6.15625 -13.015625 C 5.820312 -13.023438 5.5 -12.976562 5.1875 -12.875 C 4.875 -12.78125 4.617188 -12.632812 4.421875 -12.4375 C 4.222656 -12.25 4.125 -12.015625 4.125 -11.734375 C 4.125 -11.304688 4.253906 -10.953125 4.515625 -10.671875 C 4.773438 -10.398438 5.082031 -10.203125 5.4375 -10.078125 C 5.320312 -9.441406 5.054688 -8.96875 4.640625 -8.65625 C 4.222656 -8.34375 3.78125 -8.1875 3.3125 -8.1875 C 2.957031 -8.1875 2.617188 -8.265625 2.296875 -8.421875 C 1.984375 -8.585938 1.722656 -8.832031 1.515625 -9.15625 C 1.316406 -9.476562 1.21875 -9.863281 1.21875 -10.3125 C 1.226562 -10.800781 1.375 -11.238281 1.65625 -11.625 C 1.9375 -12.007812 2.3125 -12.332031 2.78125 -12.59375 C 3.257812 -12.863281 3.789062 -13.066406 4.375 -13.203125 C 4.96875 -13.347656 5.578125 -13.421875 6.203125 -13.421875 C 6.816406 -13.421875 7.414062 -13.34375 8 -13.1875 C 8.59375 -13.039062 9.128906 -12.804688 9.609375 -12.484375 C 10.085938 -12.171875 10.46875 -11.765625 10.75 -11.265625 C 11.03125 -10.765625 11.171875 -10.171875 11.171875 -9.484375 C 11.171875 -8.816406 11.003906 -8.226562 10.671875 -7.71875 C 10.347656 -7.21875 9.910156 -6.769531 9.359375 -6.375 C 8.816406 -5.988281 8.21875 -5.644531 7.5625 -5.34375 C 6.90625 -5.050781 6.242188 -4.773438 5.578125 -4.515625 C 4.921875 -4.265625 4.304688 -4.015625 3.734375 -3.765625 C 3.171875 -3.523438 2.707031 -3.265625 2.34375 -2.984375 C 1.976562 -2.710938 1.769531 -2.40625 1.71875 -2.0625 C 3.019531 -2.0625 4.148438 -2.070312 5.109375 -2.09375 C 6.066406 -2.125 6.890625 -2.1875 7.578125 -2.28125 C 8.265625 -2.382812 8.851562 -2.539062 9.34375 -2.75 C 9.832031 -2.957031 10.253906 -3.25 10.609375 -3.625 C 10.648438 -3.28125 10.691406 -2.894531 10.734375 -2.46875 C 10.773438 -2.039062 10.828125 -1.613281 10.890625 -1.1875 C 10.953125 -0.757812 11.019531 -0.363281 11.09375 0 Z M 0.875 0 "/></g></g></g><g fill="#483d43" fill-opacity="1"><g transform="translate(308.49737, 214.326477)"><g><path d="M 6.5 0.296875 C 5.488281 0.296875 4.609375 0.101562 3.859375 -0.28125 C 3.109375 -0.675781 2.476562 -1.195312 1.96875 -1.84375 C 1.457031 -2.488281 1.070312 -3.21875 0.8125 -4.03125 C 0.5625 -4.851562 0.4375 -5.695312 0.4375 -6.5625 C 0.4375 -7.425781 0.5625 -8.265625 0.8125 -9.078125 C 1.0625 -9.898438 1.441406 -10.632812 1.953125 -11.28125 C 2.460938 -11.9375 3.09375 -12.457031 3.84375 -12.84375 C 4.59375 -13.226562 5.476562 -13.421875 6.5 -13.421875 C 7.507812 -13.421875 8.390625 -13.226562 9.140625 -12.84375 C 9.890625 -12.46875 10.519531 -11.953125 11.03125 -11.296875 C 11.539062 -10.640625 11.921875 -9.898438 12.171875 -9.078125 C 12.429688 -8.265625 12.5625 -7.421875 12.5625 -6.546875 C 12.5625 -5.679688 12.429688 -4.84375 12.171875 -4.03125 C 11.921875 -3.21875 11.539062 -2.484375 11.03125 -1.828125 C 10.53125 -1.179688 9.90625 -0.664062 9.15625 -0.28125 C 8.40625 0.101562 7.519531 0.296875 6.5 0.296875 Z M 7.40625 -12.90625 C 6.988281 -12.90625 6.597656 -12.726562 6.234375 -12.375 C 5.867188 -12.019531 5.535156 -11.539062 5.234375 -10.9375 C 4.941406 -10.332031 4.6875 -9.65625 4.46875 -8.90625 C 4.25 -8.164062 4.082031 -7.394531 3.96875 -6.59375 C 3.863281 -5.789062 3.804688 -5.015625 3.796875 -4.265625 C 3.785156 -3.515625 3.835938 -2.835938 3.953125 -2.234375 C 4.078125 -1.628906 4.269531 -1.148438 4.53125 -0.796875 C 4.789062 -0.441406 5.128906 -0.265625 5.546875 -0.265625 C 5.960938 -0.265625 6.351562 -0.441406 6.71875 -0.796875 C 7.09375 -1.148438 7.425781 -1.628906 7.71875 -2.234375 C 8.007812 -2.835938 8.265625 -3.515625 8.484375 -4.265625 C 8.703125 -5.015625 8.863281 -5.789062 8.96875 -6.59375 C 9.082031 -7.394531 9.144531 -8.164062 9.15625 -8.90625 C 9.164062 -9.65625 9.109375 -10.332031 8.984375 -10.9375 C 8.867188 -11.539062 8.679688 -12.019531 8.421875 -12.375 C 8.160156 -12.726562 7.820312 -12.90625 7.40625 -12.90625 Z M 7.40625 -12.90625 "/></g></g></g><g fill="#483d43" fill-opacity="1"><g transform="translate(296.671505, 234.784102)"><g><path d="M 0.875 0 C 0.875 -0.925781 1.007812 -1.726562 1.28125 -2.40625 C 1.550781 -3.082031 1.90625 -3.675781 2.34375 -4.1875 C 2.789062 -4.695312 3.28125 -5.15625 3.8125 -5.5625 C 4.34375 -5.976562 4.875 -6.375 5.40625 -6.75 C 5.9375 -7.125 6.421875 -7.515625 6.859375 -7.921875 C 7.304688 -8.335938 7.660156 -8.800781 7.921875 -9.3125 C 8.191406 -9.832031 8.328125 -10.441406 8.328125 -11.140625 C 8.328125 -11.554688 8.21875 -11.898438 8 -12.171875 C 7.78125 -12.441406 7.503906 -12.644531 7.171875 -12.78125 C 6.847656 -12.925781 6.507812 -13.003906 6.15625 -13.015625 C 5.820312 -13.023438 5.5 -12.976562 5.1875 -12.875 C 4.875 -12.78125 4.617188 -12.632812 4.421875 -12.4375 C 4.222656 -12.25 4.125 -12.015625 4.125 -11.734375 C 4.125 -11.304688 4.253906 -10.953125 4.515625 -10.671875 C 4.773438 -10.398438 5.082031 -10.203125 5.4375 -10.078125 C 5.320312 -9.441406 5.054688 -8.96875 4.640625 -8.65625 C 4.222656 -8.34375 3.78125 -8.1875 3.3125 -8.1875 C 2.957031 -8.1875 2.617188 -8.265625 2.296875 -8.421875 C 1.984375 -8.585938 1.722656 -8.832031 1.515625 -9.15625 C 1.316406 -9.476562 1.21875 -9.863281 1.21875 -10.3125 C 1.226562 -10.800781 1.375 -11.238281 1.65625 -11.625 C 1.9375 -12.007812 2.3125 -12.332031 2.78125 -12.59375 C 3.257812 -12.863281 3.789062 -13.066406 4.375 -13.203125 C 4.96875 -13.347656 5.578125 -13.421875 6.203125 -13.421875 C 6.816406 -13.421875 7.414062 -13.34375 8 -13.1875 C 8.59375 -13.039062 9.128906 -12.804688 9.609375 -12.484375 C 10.085938 -12.171875 10.46875 -11.765625 10.75 -11.265625 C 11.03125 -10.765625 11.171875 -10.171875 11.171875 -9.484375 C 11.171875 -8.816406 11.003906 -8.226562 10.671875 -7.71875 C 10.347656 -7.21875 9.910156 -6.769531 9.359375 -6.375 C 8.816406 -5.988281 8.21875 -5.644531 7.5625 -5.34375 C 6.90625 -5.050781 6.242188 -4.773438 5.578125 -4.515625 C 4.921875 -4.265625 4.304688 -4.015625 3.734375 -3.765625 C 3.171875 -3.523438 2.707031 -3.265625 2.34375 -2.984375 C 1.976562 -2.710938 1.769531 -2.40625 1.71875 -2.0625 C 3.019531 -2.0625 4.148438 -2.070312 5.109375 -2.09375 C 6.066406 -2.125 6.890625 -2.1875 7.578125 -2.28125 C 8.265625 -2.382812 8.851562 -2.539062 9.34375 -2.75 C 9.832031 -2.957031 10.253906 -3.25 10.609375 -3.625 C 10.648438 -3.28125 10.691406 -2.894531 10.734375 -2.46875 C 10.773438 -2.039062 10.828125 -1.613281 10.890625 -1.1875 C 10.953125 -0.757812 11.019531 -0.363281 11.09375 0 Z M 0.875 0 "/></g></g></g><g fill="#483d43" fill-opacity="1"><g transform="translate(308.714732, 234.784102)"><g><path d="M 0.765625 -3.21875 C 0.753906 -3.707031 0.863281 -4.117188 1.09375 -4.453125 C 1.332031 -4.785156 1.632812 -5.035156 2 -5.203125 C 2.375 -5.378906 2.769531 -5.46875 3.1875 -5.46875 C 3.5625 -5.46875 3.921875 -5.394531 4.265625 -5.25 C 4.609375 -5.101562 4.90625 -4.878906 5.15625 -4.578125 C 5.414062 -4.285156 5.59375 -3.910156 5.6875 -3.453125 C 5.3125 -3.328125 4.984375 -3.113281 4.703125 -2.8125 C 4.421875 -2.519531 4.28125 -2.15625 4.28125 -1.71875 C 4.28125 -1.40625 4.363281 -1.117188 4.53125 -0.859375 C 4.695312 -0.597656 4.914062 -0.398438 5.1875 -0.265625 C 5.457031 -0.128906 5.742188 -0.0820312 6.046875 -0.125 C 6.503906 -0.164062 6.890625 -0.359375 7.203125 -0.703125 C 7.523438 -1.054688 7.78125 -1.488281 7.96875 -2 C 8.15625 -2.519531 8.269531 -3.070312 8.3125 -3.65625 C 8.363281 -4.238281 8.335938 -4.789062 8.234375 -5.3125 C 8.140625 -5.84375 7.972656 -6.285156 7.734375 -6.640625 C 7.441406 -7.046875 7.078125 -7.359375 6.640625 -7.578125 C 6.203125 -7.804688 5.710938 -7.921875 5.171875 -7.921875 C 4.648438 -7.921875 4.097656 -7.8125 3.515625 -7.59375 C 2.929688 -7.382812 2.320312 -7.046875 1.6875 -6.578125 L 2.015625 -13.125 C 2.585938 -13.289062 3.132812 -13.398438 3.65625 -13.453125 C 4.1875 -13.515625 4.691406 -13.546875 5.171875 -13.546875 C 6.054688 -13.546875 6.851562 -13.472656 7.5625 -13.328125 C 8.28125 -13.179688 8.90625 -13.03125 9.4375 -12.875 C 9.976562 -12.726562 10.414062 -12.65625 10.75 -12.65625 C 10.945312 -12.65625 11.109375 -12.6875 11.234375 -12.75 C 11.359375 -12.820312 11.457031 -12.945312 11.53125 -13.125 C 11.519531 -12.863281 11.472656 -12.566406 11.390625 -12.234375 C 11.304688 -11.898438 11.160156 -11.582031 10.953125 -11.28125 C 10.742188 -10.976562 10.441406 -10.726562 10.046875 -10.53125 C 9.660156 -10.332031 9.160156 -10.234375 8.546875 -10.234375 C 8.023438 -10.234375 7.515625 -10.300781 7.015625 -10.4375 C 6.523438 -10.570312 6.054688 -10.722656 5.609375 -10.890625 C 5.171875 -11.054688 4.765625 -11.203125 4.390625 -11.328125 C 4.023438 -11.460938 3.695312 -11.53125 3.40625 -11.53125 C 3.101562 -11.53125 2.851562 -11.414062 2.65625 -11.1875 C 2.46875 -10.957031 2.351562 -10.539062 2.3125 -9.9375 L 2.1875 -7.84375 C 2.832031 -8.46875 3.5625 -8.925781 4.375 -9.21875 C 5.195312 -9.519531 6.015625 -9.671875 6.828125 -9.671875 C 7.492188 -9.671875 8.132812 -9.570312 8.75 -9.375 C 9.363281 -9.1875 9.910156 -8.898438 10.390625 -8.515625 C 10.867188 -8.128906 11.25 -7.65625 11.53125 -7.09375 C 11.8125 -6.53125 11.953125 -5.890625 11.953125 -5.171875 C 11.953125 -4.484375 11.820312 -3.816406 11.5625 -3.171875 C 11.300781 -2.523438 10.921875 -1.9375 10.421875 -1.40625 C 9.921875 -0.882812 9.3125 -0.46875 8.59375 -0.15625 C 7.882812 0.15625 7.078125 0.3125 6.171875 0.3125 C 5.554688 0.3125 4.929688 0.238281 4.296875 0.09375 C 3.671875 -0.0507812 3.09375 -0.265625 2.5625 -0.546875 C 2.03125 -0.828125 1.597656 -1.191406 1.265625 -1.640625 C 0.941406 -2.085938 0.773438 -2.613281 0.765625 -3.21875 Z M 0.765625 -3.21875 "/></g></g></g></svg>